<svg width="1728" height="308" viewBox="0 0 1728 308" fill="none" xmlns="http://www.w3.org/2000/svg">
<mask id="path-1-outside-1_301_5" maskUnits="userSpaceOnUse" x="1" y="79" width="1492" height="229" fill="black">
<rect fill="white" x="1" y="79" width="1492" height="229"/>
<path d="M46.448 137.808C49.8827 131.984 54.736 127.355 61.008 123.92C67.28 120.485 74.672 118.768 83.184 118.768C93.1893 118.768 102.224 121.381 110.288 126.608C118.501 131.835 124.923 139.301 129.552 149.008C134.331 158.715 136.72 170.064 136.72 183.056C136.72 196.048 134.331 207.472 129.552 217.328C124.923 227.035 118.501 234.501 110.288 239.728C102.224 244.955 93.1893 247.568 83.184 247.568C74.672 247.568 67.28 245.851 61.008 242.416C54.8853 238.981 50.032 234.352 46.448 228.528V306.032H2.544V120.336H46.448V137.808ZM92.144 183.056C92.144 174.843 89.904 168.496 85.424 164.016C81.0933 159.387 75.7173 157.072 69.296 157.072C62.8747 157.072 57.424 159.387 52.944 164.016C48.6133 168.645 46.448 174.992 46.448 183.056C46.448 191.269 48.6133 197.691 52.944 202.32C57.424 206.949 62.8747 209.264 69.296 209.264C75.7173 209.264 81.0933 206.949 85.424 202.32C89.904 197.541 92.144 191.12 92.144 183.056ZM213.258 247.568C200.714 247.568 189.439 244.955 179.434 239.728C169.578 234.501 161.813 227.035 156.138 217.328C150.463 207.621 147.626 196.197 147.626 183.056C147.626 170.064 150.463 158.715 156.138 149.008C161.962 139.301 169.802 131.835 179.658 126.608C189.663 121.381 200.938 118.768 213.482 118.768C226.026 118.768 237.226 121.381 247.082 126.608C257.087 131.835 264.927 139.301 270.602 149.008C276.426 158.715 279.338 170.064 279.338 183.056C279.338 196.048 276.426 207.472 270.602 217.328C264.927 227.035 257.087 234.501 247.082 239.728C237.077 244.955 225.802 247.568 213.258 247.568ZM213.258 209.488C219.381 209.488 224.458 207.248 228.49 202.768C232.671 198.139 234.762 191.568 234.762 183.056C234.762 174.544 232.671 168.048 228.49 163.568C224.458 159.088 219.455 156.848 213.482 156.848C207.509 156.848 202.506 159.088 198.474 163.568C194.442 168.048 192.426 174.544 192.426 183.056C192.426 191.717 194.367 198.288 198.25 202.768C202.133 207.248 207.135 209.488 213.258 209.488ZM461.392 119.216C477.222 119.216 489.616 123.995 498.576 133.552C507.686 143.109 512.24 156.176 512.24 172.752V246H468.336V178.576C468.336 171.856 466.47 166.629 462.736 162.896C459.003 159.163 453.926 157.296 447.504 157.296C441.083 157.296 436.006 159.163 432.272 162.896C428.539 166.629 426.672 171.856 426.672 178.576V246H382.768V178.576C382.768 171.856 380.902 166.629 377.168 162.896C373.584 159.163 368.582 157.296 362.16 157.296C355.59 157.296 350.438 159.163 346.704 162.896C342.971 166.629 341.104 171.856 341.104 178.576V246H297.2V120.336H341.104V136.912C344.987 131.536 349.99 127.28 356.112 124.144C362.384 120.859 369.552 119.216 377.616 119.216C386.875 119.216 395.088 121.232 402.256 125.264C409.574 129.296 415.323 134.971 419.504 142.288C423.984 135.419 429.883 129.893 437.2 125.712C444.518 121.381 452.582 119.216 461.392 119.216ZM594.758 247.568C582.214 247.568 570.939 244.955 560.934 239.728C551.078 234.501 543.313 227.035 537.638 217.328C531.963 207.621 529.126 196.197 529.126 183.056C529.126 170.064 531.963 158.715 537.638 149.008C543.462 139.301 551.302 131.835 561.158 126.608C571.163 121.381 582.438 118.768 594.982 118.768C607.526 118.768 618.726 121.381 628.582 126.608C638.587 131.835 646.427 139.301 652.102 149.008C657.926 158.715 660.838 170.064 660.838 183.056C660.838 196.048 657.926 207.472 652.102 217.328C646.427 227.035 638.587 234.501 628.582 239.728C618.577 244.955 607.302 247.568 594.758 247.568ZM594.758 209.488C600.881 209.488 605.958 207.248 609.99 202.768C614.171 198.139 616.262 191.568 616.262 183.056C616.262 174.544 614.171 168.048 609.99 163.568C605.958 159.088 600.955 156.848 594.982 156.848C589.009 156.848 584.006 159.088 579.974 163.568C575.942 168.048 573.926 174.544 573.926 183.056C573.926 191.717 575.867 198.288 579.75 202.768C583.633 207.248 588.635 209.488 594.758 209.488ZM807.276 120.336V246H763.148V228.08C759.415 233.755 754.263 238.384 747.692 241.968C741.122 245.403 733.58 247.12 725.068 247.12C710.434 247.12 698.86 242.341 690.348 232.784C681.986 223.077 677.804 209.936 677.804 193.36V120.336H721.484V187.76C721.484 194.928 723.351 200.603 727.084 204.784C730.967 208.816 736.044 210.832 742.316 210.832C748.738 210.832 753.815 208.816 757.548 204.784C761.282 200.603 763.148 194.928 763.148 187.76V120.336H807.276ZM876.167 142.512C881.095 135.344 887.068 129.669 894.087 125.488C901.105 121.307 908.647 119.216 916.711 119.216V166.032H904.391C894.833 166.032 887.74 167.899 883.111 171.632C878.481 175.365 876.167 181.861 876.167 191.12V246H832.263V120.336H876.167V142.512ZM1052.51 181.712C1052.51 185.147 1052.29 188.581 1051.84 192.016H968.738C969.186 198.885 971.053 204.037 974.338 207.472C977.773 210.757 982.104 212.4 987.33 212.4C994.648 212.4 999.874 209.115 1003.01 202.544H1049.83C1047.88 211.205 1044.08 218.971 1038.4 225.84C1032.88 232.56 1025.86 237.861 1017.35 241.744C1008.83 245.627 999.426 247.568 989.122 247.568C976.728 247.568 965.677 244.955 955.97 239.728C946.413 234.501 938.872 227.035 933.346 217.328C927.97 207.621 925.282 196.197 925.282 183.056C925.282 169.915 927.97 158.565 933.346 149.008C938.722 139.301 946.189 131.835 955.746 126.608C965.453 121.381 976.578 118.768 989.122 118.768C1001.52 118.768 1012.49 121.307 1022.05 126.384C1031.61 131.461 1039.07 138.779 1044.45 148.336C1049.83 157.744 1052.51 168.869 1052.51 181.712ZM1007.71 170.736C1007.71 165.36 1005.92 161.179 1002.34 158.192C998.754 155.056 994.274 153.488 988.898 153.488C983.522 153.488 979.117 154.981 975.682 157.968C972.248 160.805 970.008 165.061 968.962 170.736H1007.71ZM1063.31 183.056C1063.31 170.064 1065.63 158.715 1070.26 149.008C1075.04 139.301 1081.53 131.835 1089.75 126.608C1097.96 121.381 1107.07 118.768 1117.07 118.768C1125.14 118.768 1132.31 120.485 1138.58 123.92C1145 127.205 1150 131.76 1153.59 137.584V80.24H1197.71V246H1153.59V228.528C1150.15 234.352 1145.3 238.981 1139.03 242.416C1132.75 245.851 1125.36 247.568 1116.85 247.568C1106.84 247.568 1097.73 244.955 1089.52 239.728C1081.46 234.501 1075.04 227.035 1070.26 217.328C1065.63 207.472 1063.31 196.048 1063.31 183.056ZM1153.81 183.056C1153.81 174.992 1151.57 168.645 1147.09 164.016C1142.76 159.387 1137.38 157.072 1130.96 157.072C1124.39 157.072 1118.94 159.387 1114.61 164.016C1110.28 168.496 1108.11 174.843 1108.11 183.056C1108.11 191.12 1110.28 197.541 1114.61 202.32C1118.94 206.949 1124.39 209.264 1130.96 209.264C1137.38 209.264 1142.76 206.949 1147.09 202.32C1151.57 197.691 1153.81 191.269 1153.81 183.056ZM1342.8 181.712C1342.8 185.147 1342.57 188.581 1342.12 192.016H1259.02C1259.47 198.885 1261.33 204.037 1264.62 207.472C1268.05 210.757 1272.38 212.4 1277.61 212.4C1284.93 212.4 1290.16 209.115 1293.29 202.544H1340.11C1338.17 211.205 1334.36 218.971 1328.68 225.84C1323.16 232.56 1316.14 237.861 1307.63 241.744C1299.12 245.627 1289.71 247.568 1279.4 247.568C1267.01 247.568 1255.96 244.955 1246.25 239.728C1236.69 234.501 1229.15 227.035 1223.63 217.328C1218.25 207.621 1215.56 196.197 1215.56 183.056C1215.56 169.915 1218.25 158.565 1223.63 149.008C1229 139.301 1236.47 131.835 1246.03 126.608C1255.73 121.381 1266.86 118.768 1279.4 118.768C1291.8 118.768 1302.77 121.307 1312.33 126.384C1321.89 131.461 1329.36 138.779 1334.73 148.336C1340.11 157.744 1342.8 168.869 1342.8 181.712ZM1298 170.736C1298 165.36 1296.2 161.179 1292.62 158.192C1289.04 155.056 1284.56 153.488 1279.18 153.488C1273.8 153.488 1269.4 154.981 1265.96 157.968C1262.53 160.805 1260.29 165.061 1259.24 170.736H1298ZM1421.02 204.56L1444.54 120.336H1491.35L1448.12 246H1393.47L1350.23 120.336H1397.05L1421.02 204.56Z"/>
</mask>
<path d="M46.448 137.808H45.448V141.472L47.3094 138.316L46.448 137.808ZM61.008 123.92L60.5277 123.043L61.008 123.92ZM110.288 126.608L109.744 127.447L109.751 127.452L110.288 126.608ZM129.552 149.008L128.649 149.439L128.655 149.45L129.552 149.008ZM129.552 217.328L128.652 216.892L128.649 216.898L129.552 217.328ZM110.288 239.728L109.751 238.884L109.744 238.889L110.288 239.728ZM61.008 242.416L60.5187 243.288L60.5277 243.293L61.008 242.416ZM46.448 228.528L47.2997 228.004L45.448 224.995V228.528H46.448ZM46.448 306.032V307.032H47.448V306.032H46.448ZM2.544 306.032H1.544V307.032H2.544V306.032ZM2.544 120.336V119.336H1.544V120.336H2.544ZM46.448 120.336H47.448V119.336H46.448V120.336ZM85.424 164.016L84.6937 164.699L84.7051 164.711L84.7169 164.723L85.424 164.016ZM52.944 164.016L52.2254 163.321L52.2195 163.327L52.2137 163.333L52.944 164.016ZM52.944 202.32L52.2137 203.003L52.2195 203.009L52.2254 203.015L52.944 202.32ZM85.424 202.32L84.6945 201.636L84.6937 201.637L85.424 202.32ZM47.3094 138.316C50.6472 132.656 55.3648 128.15 61.4883 124.797L60.5277 123.043C54.1072 126.559 49.1181 131.312 45.5866 137.3L47.3094 138.316ZM61.4883 124.797C67.5874 121.457 74.808 119.768 83.184 119.768V117.768C74.536 117.768 66.9726 119.514 60.5277 123.043L61.4883 124.797ZM83.184 119.768C93.0047 119.768 101.849 122.33 109.744 127.447L110.832 125.769C102.599 120.433 93.374 117.768 83.184 117.768V119.768ZM109.751 127.452C117.79 132.567 124.092 139.883 128.649 149.438L130.455 148.578C125.753 138.72 119.213 131.102 110.825 125.764L109.751 127.452ZM128.655 149.45C133.354 158.994 135.72 170.187 135.72 183.056H137.72C137.72 169.941 135.308 158.435 130.449 148.566L128.655 149.45ZM135.72 183.056C135.72 195.925 133.354 207.195 128.652 216.892L130.452 217.764C135.308 207.749 137.72 196.171 137.72 183.056H135.72ZM128.649 216.898C124.092 226.453 117.79 233.769 109.751 238.884L110.825 240.572C119.213 235.234 125.753 227.616 130.455 217.758L128.649 216.898ZM109.744 238.889C101.849 244.006 93.0047 246.568 83.184 246.568V248.568C93.374 248.568 102.599 245.903 110.832 240.567L109.744 238.889ZM83.184 246.568C74.808 246.568 67.5874 244.879 61.4883 241.539L60.5277 243.293C66.9726 246.822 74.536 248.568 83.184 248.568V246.568ZM61.4973 241.544C55.5189 238.19 50.792 233.679 47.2997 228.004L45.5963 229.052C49.272 235.025 54.2517 239.773 60.5187 243.288L61.4973 241.544ZM45.448 228.528V306.032H47.448V228.528H45.448ZM46.448 305.032H2.544V307.032H46.448V305.032ZM3.544 306.032V120.336H1.544V306.032H3.544ZM2.544 121.336H46.448V119.336H2.544V121.336ZM45.448 120.336V137.808H47.448V120.336H45.448ZM93.144 183.056C93.144 174.659 90.8496 168.027 86.1311 163.309L84.7169 164.723C88.9584 168.965 91.144 175.026 91.144 183.056H93.144ZM86.1543 163.333C81.6318 158.498 75.99 156.072 69.296 156.072V158.072C75.4446 158.072 80.5549 160.275 84.6937 164.699L86.1543 163.333ZM69.296 156.072C62.6028 156.072 56.8931 158.497 52.2254 163.321L53.6626 164.711C57.9549 160.276 63.1466 158.072 69.296 158.072V156.072ZM52.2137 163.333C47.6663 168.194 45.448 174.81 45.448 183.056H47.448C47.448 175.174 49.5604 169.097 53.6743 164.699L52.2137 163.333ZM45.448 183.056C45.448 191.446 47.6632 198.139 52.2137 203.003L53.6743 201.637C49.5634 197.243 47.448 191.093 47.448 183.056H45.448ZM52.2254 203.015C56.8931 207.839 62.6028 210.264 69.296 210.264V208.264C63.1466 208.264 57.9549 206.06 53.6626 201.625L52.2254 203.015ZM69.296 210.264C75.99 210.264 81.6318 207.838 86.1543 203.003L84.6937 201.637C80.5549 206.061 75.4446 208.264 69.296 208.264V210.264ZM86.1535 203.004C90.8454 197.999 93.144 191.312 93.144 183.056H91.144C91.144 190.928 88.9627 197.083 84.6945 201.636L86.1535 203.004ZM179.434 239.728L178.965 240.611L178.971 240.614L179.434 239.728ZM156.138 217.328L157.001 216.823L156.138 217.328ZM156.138 149.008L155.28 148.493L155.275 148.503L156.138 149.008ZM179.658 126.608L179.195 125.722L179.189 125.725L179.658 126.608ZM247.082 126.608L246.613 127.491L246.619 127.494L247.082 126.608ZM270.602 149.008L269.739 149.513L269.745 149.522L270.602 149.008ZM270.602 217.328L269.741 216.819L269.739 216.823L270.602 217.328ZM247.082 239.728L246.619 238.842L247.082 239.728ZM228.49 202.768L227.748 202.098L227.747 202.099L228.49 202.768ZM228.49 163.568L227.747 164.237L227.753 164.244L227.759 164.25L228.49 163.568ZM198.25 202.768L197.494 203.423L198.25 202.768ZM213.258 246.568C200.857 246.568 189.744 243.986 179.897 238.842L178.971 240.614C189.135 245.924 200.571 248.568 213.258 248.568V246.568ZM179.903 238.845C170.212 233.706 162.583 226.371 157.001 216.823L155.275 217.833C161.042 227.699 168.944 235.297 178.965 240.611L179.903 238.845ZM157.001 216.823C151.43 207.294 148.626 196.05 148.626 183.056H146.626C146.626 196.344 149.496 207.949 155.275 217.833L157.001 216.823ZM148.626 183.056C148.626 170.213 151.429 159.044 157.001 149.513L155.275 148.503C149.497 158.386 146.626 169.915 146.626 183.056H148.626ZM156.995 149.522C162.727 139.97 170.434 132.632 180.127 127.491L179.189 125.725C169.17 131.038 161.197 138.633 155.281 148.493L156.995 149.522ZM180.121 127.494C189.968 122.35 201.081 119.768 213.482 119.768V117.768C200.795 117.768 189.359 120.412 179.195 125.722L180.121 127.494ZM213.482 119.768C225.883 119.768 236.919 122.35 246.613 127.491L247.551 125.725C237.533 120.412 226.169 117.768 213.482 117.768V119.768ZM246.619 127.494C256.458 132.634 264.159 139.969 269.739 149.513L271.465 148.503C265.695 138.634 257.716 131.035 247.545 125.722L246.619 127.494ZM269.745 149.522C275.462 159.052 278.338 170.218 278.338 183.056H280.338C280.338 169.91 277.39 158.377 271.46 148.493L269.745 149.522ZM278.338 183.056C278.338 195.894 275.462 207.137 269.741 216.819L271.463 217.837C277.39 207.807 280.338 196.202 280.338 183.056H278.338ZM269.739 216.823C264.159 226.367 256.458 233.702 246.619 238.842L247.545 240.614C257.716 235.301 265.695 227.702 271.465 217.833L269.739 216.823ZM246.619 238.842C236.772 243.986 225.659 246.568 213.258 246.568V248.568C225.945 248.568 237.381 245.924 247.545 240.614L246.619 238.842ZM213.258 210.488C219.659 210.488 225.008 208.131 229.233 203.437L227.747 202.099C223.908 206.365 219.102 208.488 213.258 208.488V210.488ZM229.232 203.438C233.632 198.567 235.762 191.725 235.762 183.056H233.762C233.762 191.411 231.711 197.71 227.748 202.098L229.232 203.438ZM235.762 183.056C235.762 174.39 233.633 167.612 229.221 162.886L227.759 164.25C231.71 168.483 233.762 174.698 233.762 183.056H235.762ZM229.233 162.899C225.014 158.21 219.742 155.848 213.482 155.848V157.848C219.169 157.848 223.902 159.965 227.747 164.237L229.233 162.899ZM213.482 155.848C207.222 155.848 201.95 158.21 197.731 162.899L199.217 164.237C203.062 159.965 207.795 157.848 213.482 157.848V155.848ZM197.731 162.899C193.476 167.626 191.426 174.398 191.426 183.056H193.426C193.426 174.69 195.408 168.47 199.217 164.237L197.731 162.899ZM191.426 183.056C191.426 191.849 193.395 198.693 197.494 203.423L199.006 202.113C195.339 197.883 193.426 191.585 193.426 183.056H191.426ZM197.494 203.423C201.574 208.13 206.856 210.488 213.258 210.488V208.488C207.414 208.488 202.691 206.366 199.006 202.113L197.494 203.423ZM498.576 133.552L497.847 134.236L497.852 134.242L498.576 133.552ZM512.24 246V247H513.24V246H512.24ZM468.336 246H467.336V247H468.336V246ZM462.736 162.896L462.029 163.603L462.736 162.896ZM432.272 162.896L432.979 163.603L432.272 162.896ZM426.672 246V247H427.672V246H426.672ZM382.768 246H381.768V247H382.768V246ZM377.168 162.896L376.447 163.589L376.454 163.596L376.461 163.603L377.168 162.896ZM346.704 162.896L347.411 163.603L346.704 162.896ZM341.104 246V247H342.104V246H341.104ZM297.2 246H296.2V247H297.2V246ZM297.2 120.336V119.336H296.2V120.336H297.2ZM341.104 120.336H342.104V119.336H341.104V120.336ZM341.104 136.912H340.104V140.005L341.915 137.497L341.104 136.912ZM356.112 124.144L356.568 125.034L356.576 125.03L356.112 124.144ZM402.256 125.264L401.766 126.136L401.774 126.14L402.256 125.264ZM419.504 142.288L418.636 142.784L419.448 144.205L420.342 142.834L419.504 142.288ZM437.2 125.712L437.696 126.58L437.703 126.576L437.71 126.573L437.2 125.712ZM461.392 120.216C477.007 120.216 489.114 124.921 497.847 134.236L499.306 132.868C490.118 123.068 477.436 118.216 461.392 118.216V120.216ZM497.852 134.242C506.742 143.569 511.24 156.364 511.24 172.752H513.24C513.24 155.988 508.629 142.65 499.3 132.862L497.852 134.242ZM511.24 172.752V246H513.24V172.752H511.24ZM512.24 245H468.336V247H512.24V245ZM469.336 246V178.576H467.336V246H469.336ZM469.336 178.576C469.336 171.667 467.412 166.157 463.443 162.189L462.029 163.603C465.527 167.101 467.336 172.045 467.336 178.576H469.336ZM463.443 162.189C459.483 158.229 454.13 156.296 447.504 156.296V158.296C453.721 158.296 458.523 160.096 462.029 163.603L463.443 162.189ZM447.504 156.296C440.879 156.296 435.525 158.229 431.565 162.189L432.979 163.603C436.486 160.096 441.287 158.296 447.504 158.296V156.296ZM431.565 162.189C427.597 166.157 425.672 171.667 425.672 178.576H427.672C427.672 172.045 429.481 167.101 432.979 163.603L431.565 162.189ZM425.672 178.576V246H427.672V178.576H425.672ZM426.672 245H382.768V247H426.672V245ZM383.768 246V178.576H381.768V246H383.768ZM383.768 178.576C383.768 171.667 381.844 166.157 377.875 162.189L376.461 163.603C379.959 167.101 381.768 172.045 381.768 178.576H383.768ZM377.89 162.203C374.074 158.228 368.784 156.296 362.16 156.296V158.296C368.379 158.296 373.095 160.097 376.447 163.589L377.89 162.203ZM362.16 156.296C355.393 156.296 349.962 158.225 345.997 162.189L347.411 163.603C350.914 160.101 355.786 158.296 362.16 158.296V156.296ZM345.997 162.189C342.029 166.157 340.104 171.667 340.104 178.576H342.104C342.104 172.045 343.913 167.101 347.411 163.603L345.997 162.189ZM340.104 178.576V246H342.104V178.576H340.104ZM341.104 245H297.2V247H341.104V245ZM298.2 246V120.336H296.2V246H298.2ZM297.2 121.336H341.104V119.336H297.2V121.336ZM340.104 120.336V136.912H342.104V120.336H340.104ZM341.915 137.497C345.702 132.254 350.581 128.101 356.568 125.034L355.656 123.254C349.398 126.459 344.272 130.818 340.294 136.327L341.915 137.497ZM356.576 125.03C362.686 121.829 369.691 120.216 377.616 120.216V118.216C369.413 118.216 362.082 119.888 355.648 123.258L356.576 125.03ZM377.616 120.216C386.725 120.216 394.766 122.198 401.766 126.136L402.747 124.392C395.411 120.266 387.025 118.216 377.616 118.216V120.216ZM401.774 126.14C408.928 130.082 414.545 135.625 418.636 142.784L420.372 141.792C416.101 134.316 410.219 128.51 402.739 124.388L401.774 126.14ZM420.342 142.834C424.733 136.102 430.513 130.685 437.696 126.58L436.704 124.844C429.253 129.102 423.236 134.736 418.667 141.742L420.342 142.834ZM437.71 126.573C444.867 122.337 452.754 120.216 461.392 120.216V118.216C452.409 118.216 444.168 120.426 436.691 124.851L437.71 126.573ZM560.934 239.728L560.466 240.611L560.471 240.614L560.934 239.728ZM537.638 217.328L538.501 216.823L537.638 217.328ZM537.638 149.008L536.78 148.493L536.775 148.503L537.638 149.008ZM561.158 126.608L560.695 125.722L560.69 125.725L561.158 126.608ZM628.582 126.608L628.113 127.491L628.119 127.494L628.582 126.608ZM652.102 149.008L651.239 149.513L651.245 149.522L652.102 149.008ZM652.102 217.328L651.241 216.819L651.239 216.823L652.102 217.328ZM628.582 239.728L628.119 238.842L628.582 239.728ZM609.99 202.768L609.248 202.098L609.247 202.099L609.99 202.768ZM609.99 163.568L609.247 164.237L609.253 164.244L609.259 164.25L609.99 163.568ZM579.75 202.768L578.994 203.423L579.75 202.768ZM594.758 246.568C582.357 246.568 571.244 243.986 561.397 238.842L560.471 240.614C570.635 245.924 582.071 248.568 594.758 248.568V246.568ZM561.403 238.845C551.712 233.706 544.083 226.371 538.501 216.823L536.775 217.833C542.542 227.699 550.444 235.297 560.466 240.611L561.403 238.845ZM538.501 216.823C532.93 207.294 530.126 196.05 530.126 183.056H528.126C528.126 196.344 530.996 207.949 536.775 217.833L538.501 216.823ZM530.126 183.056C530.126 170.213 532.929 159.044 538.501 149.513L536.775 148.503C530.997 158.386 528.126 169.915 528.126 183.056H530.126ZM538.495 149.522C544.227 139.97 551.934 132.632 561.627 127.491L560.69 125.725C550.67 131.038 542.697 138.633 536.781 148.493L538.495 149.522ZM561.621 127.494C571.468 122.35 582.581 119.768 594.982 119.768V117.768C582.295 117.768 570.859 120.412 560.695 125.722L561.621 127.494ZM594.982 119.768C607.383 119.768 618.419 122.35 628.114 127.491L629.051 125.725C619.033 120.412 607.669 117.768 594.982 117.768V119.768ZM628.119 127.494C637.958 132.634 645.659 139.969 651.239 149.513L652.965 148.503C647.195 138.634 639.216 131.035 629.045 125.722L628.119 127.494ZM651.245 149.522C656.962 159.052 659.838 170.218 659.838 183.056H661.838C661.838 169.91 658.89 158.377 652.959 148.493L651.245 149.522ZM659.838 183.056C659.838 195.894 656.962 207.137 651.241 216.819L652.963 217.837C658.89 207.807 661.838 196.202 661.838 183.056H659.838ZM651.239 216.823C645.659 226.367 637.958 233.702 628.119 238.842L629.045 240.614C639.216 235.301 647.195 227.702 652.965 217.833L651.239 216.823ZM628.119 238.842C618.272 243.986 607.159 246.568 594.758 246.568V248.568C607.445 248.568 618.881 245.924 629.045 240.614L628.119 238.842ZM594.758 210.488C601.159 210.488 606.508 208.131 610.733 203.437L609.247 202.099C605.408 206.365 600.602 208.488 594.758 208.488V210.488ZM610.732 203.438C615.132 198.567 617.262 191.725 617.262 183.056H615.262C615.262 191.411 613.211 197.71 609.248 202.098L610.732 203.438ZM617.262 183.056C617.262 174.39 615.133 167.612 610.721 162.886L609.259 164.25C613.21 168.483 615.262 174.698 615.262 183.056H617.262ZM610.733 162.899C606.514 158.21 601.242 155.848 594.982 155.848V157.848C600.669 157.848 605.402 159.965 609.247 164.237L610.733 162.899ZM594.982 155.848C588.722 155.848 583.45 158.21 579.231 162.899L580.717 164.237C584.562 159.965 589.295 157.848 594.982 157.848V155.848ZM579.231 162.899C574.976 167.626 572.926 174.398 572.926 183.056H574.926C574.926 174.69 576.908 168.47 580.717 164.237L579.231 162.899ZM572.926 183.056C572.926 191.849 574.895 198.693 578.994 203.423L580.506 202.113C576.839 197.883 574.926 191.585 574.926 183.056H572.926ZM578.994 203.423C583.074 208.13 588.356 210.488 594.758 210.488V208.488C588.914 208.488 584.191 206.366 580.506 202.113L578.994 203.423ZM807.276 120.336H808.276V119.336H807.276V120.336ZM807.276 246V247H808.276V246H807.276ZM763.148 246H762.148V247H763.148V246ZM763.148 228.08H764.148V224.741L762.313 227.53L763.148 228.08ZM747.692 241.968L748.156 242.854L748.163 242.85L748.171 242.846L747.692 241.968ZM690.348 232.784L689.591 233.437L689.596 233.443L689.602 233.449L690.348 232.784ZM677.804 120.336V119.336H676.804V120.336H677.804ZM721.484 120.336H722.484V119.336H721.484V120.336ZM727.084 204.784L726.338 205.45L726.351 205.464L726.364 205.478L727.084 204.784ZM757.548 204.784L758.282 205.463L758.288 205.457L758.294 205.45L757.548 204.784ZM763.148 120.336V119.336H762.148V120.336H763.148ZM806.276 120.336V246H808.276V120.336H806.276ZM807.276 245H763.148V247H807.276V245ZM764.148 246V228.08H762.148V246H764.148ZM762.313 227.53C758.679 233.054 753.655 237.576 747.213 241.09L748.171 242.846C754.871 239.192 760.151 234.455 763.984 228.63L762.313 227.53ZM747.229 241.082C740.821 244.431 733.443 246.12 725.068 246.12V248.12C733.718 248.12 741.422 246.374 748.156 242.854L747.229 241.082ZM725.068 246.12C710.674 246.12 699.389 241.432 691.095 232.119L689.602 233.449C698.331 243.251 710.194 248.12 725.068 248.12V246.12ZM691.106 232.131C682.941 222.654 678.804 209.768 678.804 193.36H676.804C676.804 210.104 681.03 223.501 689.591 233.437L691.106 232.131ZM678.804 193.36V120.336H676.804V193.36H678.804ZM677.804 121.336H721.484V119.336H677.804V121.336ZM720.484 120.336V187.76H722.484V120.336H720.484ZM720.484 187.76C720.484 195.103 722.4 201.039 726.338 205.45L727.83 204.118C724.302 200.166 722.484 194.753 722.484 187.76H720.484ZM726.364 205.478C730.459 209.73 735.808 211.832 742.316 211.832V209.832C736.28 209.832 731.475 207.902 727.805 204.09L726.364 205.478ZM742.316 211.832C748.965 211.832 754.327 209.735 758.282 205.463L756.815 204.105C753.303 207.897 748.51 209.832 742.316 209.832V211.832ZM758.294 205.45C762.233 201.039 764.148 195.103 764.148 187.76H762.148C762.148 194.753 760.33 200.166 756.802 204.118L758.294 205.45ZM764.148 187.76V120.336H762.148V187.76H764.148ZM763.148 121.336H807.276V119.336H763.148V121.336ZM876.167 142.512H875.167V145.732L876.991 143.079L876.167 142.512ZM916.711 119.216H917.711V118.216H916.711V119.216ZM916.711 166.032V167.032H917.711V166.032H916.711ZM883.111 171.632L883.739 172.41L883.111 171.632ZM876.167 246V247H877.167V246H876.167ZM832.263 246H831.263V247H832.263V246ZM832.263 120.336V119.336H831.263V120.336H832.263ZM876.167 120.336H877.167V119.336H876.167V120.336ZM876.991 143.079C881.842 136.022 887.712 130.45 894.599 126.347L893.575 124.629C886.424 128.889 880.347 134.666 875.343 141.945L876.991 143.079ZM894.599 126.347C901.465 122.257 908.829 120.216 916.711 120.216V118.216C908.464 118.216 900.746 120.357 893.575 124.629L894.599 126.347ZM915.711 119.216V166.032H917.711V119.216H915.711ZM916.711 165.032H904.391V167.032H916.711V165.032ZM904.391 165.032C894.734 165.032 887.37 166.913 882.483 170.854L883.739 172.41C888.11 168.885 894.933 167.032 904.391 167.032V165.032ZM882.483 170.854C877.512 174.862 875.167 181.729 875.167 191.12H877.167C877.167 181.994 879.451 175.868 883.739 172.41L882.483 170.854ZM875.167 191.12V246H877.167V191.12H875.167ZM876.167 245H832.263V247H876.167V245ZM833.263 246V120.336H831.263V246H833.263ZM832.263 121.336H876.167V119.336H832.263V121.336ZM875.167 120.336V142.512H877.167V120.336H875.167ZM1051.84 192.016V193.016H1052.72L1052.83 192.145L1051.84 192.016ZM968.738 192.016V191.016H967.671L967.74 192.081L968.738 192.016ZM974.338 207.472L973.616 208.163L973.631 208.179L973.647 208.195L974.338 207.472ZM1003.01 202.544V201.544H1002.38L1002.11 202.113L1003.01 202.544ZM1049.83 202.544L1050.8 202.763L1051.08 201.544H1049.83V202.544ZM1038.4 225.84L1037.63 225.203L1037.63 225.205L1038.4 225.84ZM1017.35 241.744L1017.76 242.654L1017.35 241.744ZM955.97 239.728L955.49 240.605L955.496 240.608L955.97 239.728ZM933.346 217.328L932.471 217.813L932.477 217.823L933.346 217.328ZM933.346 149.008L934.218 149.498L934.221 149.492L933.346 149.008ZM955.746 126.608L955.272 125.728L955.266 125.731L955.746 126.608ZM1022.05 126.384L1022.52 125.501L1022.05 126.384ZM1044.45 148.336L1043.58 148.826L1043.58 148.832L1044.45 148.336ZM1007.71 170.736V171.736H1008.71V170.736H1007.71ZM1002.34 158.192L1001.68 158.945L1001.69 158.952L1001.7 158.96L1002.34 158.192ZM975.682 157.968L976.319 158.739L976.329 158.731L976.338 158.723L975.682 157.968ZM968.962 170.736L967.979 170.555L967.761 171.736H968.962V170.736ZM1051.51 181.712C1051.51 185.103 1051.29 188.495 1050.85 191.887L1052.83 192.145C1053.29 188.668 1053.51 185.19 1053.51 181.712H1051.51ZM1051.84 191.016H968.738V193.016H1051.84V191.016ZM967.74 192.081C968.197 199.082 970.109 204.497 973.616 208.163L975.061 206.781C971.997 203.578 970.176 198.688 969.736 191.951L967.74 192.081ZM973.647 208.195C977.287 211.676 981.874 213.4 987.33 213.4V211.4C982.333 211.4 978.259 209.838 975.029 206.749L973.647 208.195ZM987.33 213.4C991.142 213.4 994.47 212.543 997.27 210.783C1000.07 209.022 1002.28 206.4 1003.91 202.975L1002.11 202.113C1000.61 205.259 998.632 207.564 996.206 209.089C993.78 210.615 990.836 211.4 987.33 211.4V213.4ZM1003.01 203.544H1049.83V201.544H1003.01V203.544ZM1048.85 202.325C1046.94 210.832 1043.21 218.455 1037.63 225.203L1039.17 226.477C1044.95 219.487 1048.83 211.578 1050.8 202.763L1048.85 202.325ZM1037.63 225.205C1032.21 231.799 1025.32 237.01 1016.93 240.834L1017.76 242.654C1026.4 238.713 1033.55 233.321 1039.17 226.475L1037.63 225.205ZM1016.93 240.834C1008.56 244.652 999.298 246.568 989.122 246.568V248.568C999.555 248.568 1009.11 246.602 1017.76 242.654L1016.93 240.834ZM989.122 246.568C976.872 246.568 965.988 243.986 956.444 238.848L955.496 240.608C965.366 245.923 976.583 248.568 989.122 248.568V246.568ZM956.45 238.851C947.06 233.715 939.651 226.383 934.215 216.833L932.477 217.823C938.092 227.686 945.766 235.287 955.49 240.605L956.45 238.851ZM934.221 216.844C928.941 207.31 926.282 196.059 926.282 183.056H924.282C924.282 196.336 926.999 207.932 932.471 217.812L934.221 216.844ZM926.282 183.056C926.282 170.052 928.941 158.879 934.218 149.498L932.475 148.518C926.999 158.252 924.282 169.777 924.282 183.056H926.282ZM934.221 149.492C939.507 139.948 946.838 132.619 956.226 127.485L955.266 125.731C945.54 131.05 937.937 138.654 932.471 148.523L934.221 149.492ZM956.22 127.488C965.762 122.351 976.721 119.768 989.122 119.768V117.768C976.436 117.768 965.144 120.412 955.272 125.728L956.22 127.488ZM989.122 119.768C1001.38 119.768 1012.19 122.277 1021.58 127.267L1022.52 125.501C1012.8 120.336 1001.66 117.768 989.122 117.768V119.768ZM1021.58 127.267C1030.97 132.253 1038.3 139.433 1043.58 148.826L1045.32 147.846C1039.85 138.124 1032.25 130.669 1022.52 125.501L1021.58 127.267ZM1043.58 148.832C1048.86 158.063 1051.51 169.011 1051.51 181.712H1053.51C1053.51 168.728 1050.8 157.425 1045.32 147.84L1043.58 148.832ZM1008.71 170.736C1008.71 165.114 1006.83 160.631 1002.98 157.424L1001.7 158.96C1005.02 161.727 1006.71 165.606 1006.71 170.736H1008.71ZM1003 157.439C999.207 154.123 994.483 152.488 988.898 152.488V154.488C994.065 154.488 998.302 155.989 1001.68 158.945L1003 157.439ZM988.898 152.488C983.327 152.488 978.675 154.041 975.026 157.213L976.338 158.723C979.559 155.922 983.717 154.488 988.898 154.488V152.488ZM975.045 157.197C971.382 160.224 969.054 164.718 967.979 170.555L969.946 170.917C970.961 165.404 973.114 161.387 976.319 158.739L975.045 157.197ZM968.962 171.736H1007.71V169.736H968.962V171.736ZM1070.26 149.008L1069.36 148.566L1069.35 148.578L1070.26 149.008ZM1089.75 126.608L1089.21 125.764L1089.75 126.608ZM1138.58 123.92L1138.1 124.797L1138.11 124.804L1138.12 124.81L1138.58 123.92ZM1153.59 137.584L1152.73 138.108L1154.59 141.117V137.584H1153.59ZM1153.59 80.24V79.24H1152.59V80.24H1153.59ZM1197.71 80.24H1198.71V79.24H1197.71V80.24ZM1197.71 246V247H1198.71V246H1197.71ZM1153.59 246H1152.59V247H1153.59V246ZM1153.59 228.528H1154.59V224.864L1152.72 228.02L1153.59 228.528ZM1139.03 242.416L1138.55 241.539L1139.03 242.416ZM1089.52 239.728L1088.98 240.567L1088.98 240.572L1089.52 239.728ZM1070.26 217.328L1069.35 217.753L1069.36 217.761L1069.36 217.77L1070.26 217.328ZM1147.09 164.016L1146.36 164.699L1146.36 164.705L1146.37 164.711L1147.09 164.016ZM1114.61 164.016L1115.33 164.711L1115.33 164.705L1115.34 164.699L1114.61 164.016ZM1114.61 202.32L1113.87 202.992L1113.87 202.997L1113.88 203.003L1114.61 202.32ZM1147.09 202.32L1146.37 201.625L1146.36 201.631L1146.36 201.637L1147.09 202.32ZM1064.31 183.056C1064.31 170.182 1066.61 158.986 1071.16 149.438L1069.35 148.578C1064.65 158.444 1062.31 169.946 1062.31 183.056H1064.31ZM1071.15 149.45C1075.86 139.889 1082.24 132.569 1090.28 127.452L1089.21 125.764C1080.82 131.1 1074.21 138.714 1069.36 148.566L1071.15 149.45ZM1090.28 127.452C1098.33 122.33 1107.25 119.768 1117.07 119.768V117.768C1106.88 117.768 1097.59 120.433 1089.21 125.764L1090.28 127.452ZM1117.07 119.768C1124.99 119.768 1131.99 121.453 1138.1 124.797L1139.06 123.043C1132.62 119.518 1125.28 117.768 1117.07 117.768V119.768ZM1138.12 124.81C1144.39 128.017 1149.25 132.449 1152.73 138.108L1154.44 137.06C1150.75 131.071 1145.61 126.394 1139.03 123.03L1138.12 124.81ZM1154.59 137.584V80.24H1152.59V137.584H1154.59ZM1153.59 81.24H1197.71V79.24H1153.59V81.24ZM1196.71 80.24V246H1198.71V80.24H1196.71ZM1197.71 245H1153.59V247H1197.71V245ZM1154.59 246V228.528H1152.59V246H1154.59ZM1152.72 228.02C1149.39 233.68 1144.67 238.186 1138.55 241.539L1139.51 243.293C1145.93 239.777 1150.92 235.024 1154.45 229.036L1152.72 228.02ZM1138.55 241.539C1132.45 244.879 1125.23 246.568 1116.85 246.568V248.568C1125.5 248.568 1133.06 246.822 1139.51 243.293L1138.55 241.539ZM1116.85 246.568C1107.03 246.568 1098.11 244.006 1090.06 238.884L1088.98 240.572C1097.36 245.903 1106.66 248.568 1116.85 248.568V246.568ZM1090.07 238.889C1082.17 233.772 1075.86 226.452 1071.15 216.886L1069.36 217.77C1074.21 227.617 1080.74 235.23 1088.98 240.567L1090.07 238.889ZM1071.16 216.903C1066.61 207.203 1064.31 195.929 1064.31 183.056H1062.31C1062.31 196.167 1064.65 207.741 1069.35 217.753L1071.16 216.903ZM1154.81 183.056C1154.81 174.801 1152.51 168.181 1147.81 163.321L1146.37 164.711C1150.63 169.11 1152.81 175.183 1152.81 183.056H1154.81ZM1147.82 163.333C1143.3 158.498 1137.66 156.072 1130.96 156.072V158.072C1137.11 158.072 1142.22 160.275 1146.36 164.699L1147.82 163.333ZM1130.96 156.072C1124.13 156.072 1118.41 158.493 1113.88 163.333L1115.34 164.699C1119.47 160.28 1124.66 158.072 1130.96 158.072V156.072ZM1113.89 163.321C1109.33 168.041 1107.11 174.668 1107.11 183.056H1109.11C1109.11 175.017 1111.23 168.951 1115.33 164.711L1113.89 163.321ZM1107.11 183.056C1107.11 191.304 1109.33 197.986 1113.87 202.992L1115.35 201.648C1111.23 197.097 1109.11 190.936 1109.11 183.056H1107.11ZM1113.88 203.003C1118.41 207.843 1124.13 210.264 1130.96 210.264V208.264C1124.66 208.264 1119.47 206.056 1115.34 201.637L1113.88 203.003ZM1130.96 210.264C1137.66 210.264 1143.3 207.838 1147.82 203.003L1146.36 201.637C1142.22 206.061 1137.11 208.264 1130.96 208.264V210.264ZM1147.81 203.015C1152.51 198.152 1154.81 191.454 1154.81 183.056H1152.81C1152.81 191.084 1150.62 197.229 1146.37 201.625L1147.81 203.015ZM1342.12 192.016V193.016H1343L1343.12 192.145L1342.12 192.016ZM1259.02 192.016V191.016H1257.95L1258.02 192.081L1259.02 192.016ZM1264.62 207.472L1263.9 208.163L1263.91 208.179L1263.93 208.195L1264.62 207.472ZM1293.29 202.544V201.544H1292.66L1292.39 202.113L1293.29 202.544ZM1340.11 202.544L1341.08 202.763L1341.36 201.544H1340.11V202.544ZM1328.68 225.84L1327.91 225.203L1327.91 225.205L1328.68 225.84ZM1307.63 241.744L1308.04 242.654L1307.63 241.744ZM1246.25 239.728L1245.77 240.605L1245.78 240.608L1246.25 239.728ZM1223.63 217.328L1222.75 217.813L1222.76 217.823L1223.63 217.328ZM1223.63 149.008L1224.5 149.498L1224.5 149.492L1223.63 149.008ZM1246.03 126.608L1245.55 125.728L1245.55 125.731L1246.03 126.608ZM1312.33 126.384L1312.8 125.501L1312.33 126.384ZM1334.73 148.336L1333.86 148.826L1333.86 148.832L1334.73 148.336ZM1298 170.736V171.736H1299V170.736H1298ZM1292.62 158.192L1291.96 158.945L1291.97 158.952L1291.98 158.96L1292.62 158.192ZM1265.96 157.968L1266.6 158.739L1266.61 158.731L1266.62 158.723L1265.96 157.968ZM1259.24 170.736L1258.26 170.555L1258.04 171.736H1259.24V170.736ZM1341.8 181.712C1341.8 185.103 1341.57 188.495 1341.13 191.887L1343.12 192.145C1343.57 188.668 1343.8 185.19 1343.8 181.712H1341.8ZM1342.12 191.016H1259.02V193.016H1342.12V191.016ZM1258.02 192.081C1258.48 199.082 1260.39 204.497 1263.9 208.163L1265.34 206.781C1262.28 203.578 1260.46 198.688 1260.02 191.951L1258.02 192.081ZM1263.93 208.195C1267.57 211.676 1272.16 213.4 1277.61 213.4V211.4C1272.61 211.4 1268.54 209.838 1265.31 206.749L1263.93 208.195ZM1277.61 213.4C1281.42 213.4 1284.75 212.543 1287.55 210.783C1290.35 209.022 1292.56 206.4 1294.19 202.975L1292.39 202.113C1290.89 205.259 1288.91 207.564 1286.49 209.089C1284.06 210.615 1281.12 211.4 1277.61 211.4V213.4ZM1293.29 203.544H1340.11V201.544H1293.29V203.544ZM1339.13 202.325C1337.22 210.832 1333.49 218.455 1327.91 225.203L1329.45 226.477C1335.23 219.487 1339.11 211.578 1341.08 202.763L1339.13 202.325ZM1327.91 225.205C1322.49 231.799 1315.6 237.01 1307.21 240.834L1308.04 242.654C1316.68 238.713 1323.83 233.321 1329.46 226.475L1327.91 225.205ZM1307.21 240.834C1298.84 244.652 1289.58 246.568 1279.4 246.568V248.568C1289.84 248.568 1299.39 246.602 1308.04 242.654L1307.21 240.834ZM1279.4 246.568C1267.15 246.568 1256.27 243.986 1246.73 238.848L1245.78 240.608C1255.65 245.923 1266.86 248.568 1279.4 248.568V246.568ZM1246.73 238.851C1237.34 233.715 1229.93 226.383 1224.5 216.833L1222.76 217.823C1228.37 227.686 1236.05 235.287 1245.77 240.605L1246.73 238.851ZM1224.5 216.844C1219.22 207.31 1216.56 196.059 1216.56 183.056H1214.56C1214.56 196.336 1217.28 207.932 1222.75 217.812L1224.5 216.844ZM1216.56 183.056C1216.56 170.052 1219.22 158.879 1224.5 149.498L1222.76 148.518C1217.28 158.252 1214.56 169.777 1214.56 183.056H1216.56ZM1224.5 149.492C1229.79 139.948 1237.12 132.619 1246.51 127.485L1245.55 125.731C1235.82 131.05 1228.22 138.654 1222.75 148.523L1224.5 149.492ZM1246.5 127.488C1256.04 122.351 1267 119.768 1279.4 119.768V117.768C1266.72 117.768 1255.42 120.412 1245.55 125.728L1246.5 127.488ZM1279.4 119.768C1291.66 119.768 1302.47 122.277 1311.86 127.267L1312.8 125.501C1303.08 120.336 1291.94 117.768 1279.4 117.768V119.768ZM1311.86 127.267C1321.25 132.253 1328.58 139.433 1333.86 148.826L1335.6 147.846C1330.13 138.124 1322.53 130.669 1312.8 125.501L1311.86 127.267ZM1333.86 148.832C1339.14 158.063 1341.8 169.011 1341.8 181.712H1343.8C1343.8 168.728 1341.08 157.425 1335.6 147.84L1333.86 148.832ZM1299 170.736C1299 165.114 1297.11 160.631 1293.26 157.424L1291.98 158.96C1295.3 161.727 1297 165.606 1297 170.736H1299ZM1293.28 157.439C1289.49 154.123 1284.76 152.488 1279.18 152.488V154.488C1284.35 154.488 1288.58 155.989 1291.96 158.945L1293.28 157.439ZM1279.18 152.488C1273.61 152.488 1268.96 154.041 1265.31 157.213L1266.62 158.723C1269.84 155.922 1274 154.488 1279.18 154.488V152.488ZM1265.33 157.197C1261.66 160.224 1259.34 164.718 1258.26 170.555L1260.23 170.917C1261.24 165.404 1263.39 161.387 1266.6 158.739L1265.33 157.197ZM1259.24 171.736H1298V169.736H1259.24V171.736ZM1421.02 204.56L1420.06 204.834L1421.03 208.245L1421.98 204.829L1421.02 204.56ZM1444.54 120.336V119.336H1443.78L1443.58 120.067L1444.54 120.336ZM1491.35 120.336L1492.3 120.661L1492.76 119.336H1491.35V120.336ZM1448.12 246V247H1448.84L1449.07 246.325L1448.12 246ZM1393.47 246L1392.52 246.325L1392.75 247H1393.47V246ZM1350.23 120.336V119.336H1348.83L1349.29 120.661L1350.23 120.336ZM1397.05 120.336L1398.01 120.062L1397.81 119.336H1397.05V120.336ZM1421.98 204.829L1445.5 120.605L1443.58 120.067L1420.06 204.291L1421.98 204.829ZM1444.54 121.336H1491.35V119.336H1444.54V121.336ZM1490.41 120.011L1447.18 245.675L1449.07 246.325L1492.3 120.661L1490.41 120.011ZM1448.12 245H1393.47V247H1448.12V245ZM1394.41 245.675L1351.18 120.011L1349.29 120.661L1392.52 246.325L1394.41 245.675ZM1350.23 121.336H1397.05V119.336H1350.23V121.336ZM1396.09 120.61L1420.06 204.834L1421.98 204.286L1398.01 120.062L1396.09 120.61Z" fill="#6B6868" fill-opacity="0.3" mask="url(#path-1-outside-1_301_5)"/>
<mask id="path-3-outside-2_301_5" maskUnits="userSpaceOnUse" x="1514" y="117" width="212" height="107" fill="black">
<rect fill="white" x="1514" y="117" width="212" height="107"/>
<path d="M1540.25 129.108C1542.15 125.884 1544.84 123.321 1548.31 121.42C1551.78 119.519 1555.87 118.568 1560.58 118.568C1566.12 118.568 1571.12 120.015 1575.59 122.908C1580.13 125.801 1583.69 129.935 1586.25 135.308C1588.9 140.681 1590.22 146.964 1590.22 154.156C1590.22 161.348 1588.9 167.672 1586.25 173.128C1583.69 178.501 1580.13 182.635 1575.59 185.528C1571.12 188.421 1566.12 189.868 1560.58 189.868C1555.87 189.868 1551.78 188.917 1548.31 187.016C1544.92 185.115 1542.23 182.552 1540.25 179.328V222.232H1515.94V119.436H1540.25V129.108ZM1565.54 154.156C1565.54 149.609 1564.3 146.096 1561.82 143.616C1559.43 141.053 1556.45 139.772 1552.9 139.772C1549.34 139.772 1546.32 141.053 1543.84 143.616C1541.45 146.179 1540.25 149.692 1540.25 154.156C1540.25 158.703 1541.45 162.257 1543.84 164.82C1546.32 167.383 1549.34 168.664 1552.9 168.664C1556.45 168.664 1559.43 167.383 1561.82 164.82C1564.3 162.175 1565.54 158.62 1565.54 154.156ZM1624.53 131.712C1627.26 127.744 1630.56 124.603 1634.45 122.288C1638.33 119.973 1642.51 118.816 1646.97 118.816V144.732H1640.15C1634.86 144.732 1630.94 145.765 1628.37 147.832C1625.81 149.899 1624.53 153.495 1624.53 158.62V189H1600.23V119.436H1624.53V131.712ZM1688.05 189.868C1681.11 189.868 1674.86 188.421 1669.33 185.528C1663.87 182.635 1659.57 178.501 1656.43 173.128C1653.29 167.755 1651.72 161.431 1651.72 154.156C1651.72 146.964 1653.29 140.681 1656.43 135.308C1659.65 129.935 1663.99 125.801 1669.45 122.908C1674.99 120.015 1681.23 118.568 1688.17 118.568C1695.12 118.568 1701.32 120.015 1706.77 122.908C1712.31 125.801 1716.65 129.935 1719.79 135.308C1723.02 140.681 1724.63 146.964 1724.63 154.156C1724.63 161.348 1723.02 167.672 1719.79 173.128C1716.65 178.501 1712.31 182.635 1706.77 185.528C1701.24 188.421 1694.99 189.868 1688.05 189.868ZM1688.05 168.788C1691.44 168.788 1694.25 167.548 1696.48 165.068C1698.8 162.505 1699.95 158.868 1699.95 154.156C1699.95 149.444 1698.8 145.848 1696.48 143.368C1694.25 140.888 1691.48 139.648 1688.17 139.648C1684.87 139.648 1682.1 140.888 1679.87 143.368C1677.63 145.848 1676.52 149.444 1676.52 154.156C1676.52 158.951 1677.59 162.588 1679.74 165.068C1681.89 167.548 1684.66 168.788 1688.05 168.788Z"/>
</mask>
<path d="M1540.25 129.108H1539.25V132.772L1541.11 129.616L1540.25 129.108ZM1548.31 121.42L1547.83 120.543L1548.31 121.42ZM1575.59 122.908L1575.04 123.747L1575.05 123.752L1575.59 122.908ZM1586.25 135.308L1585.35 135.739L1585.35 135.75L1586.25 135.308ZM1586.25 173.128L1585.35 172.692L1585.35 172.698L1586.25 173.128ZM1575.59 185.528L1575.05 184.684L1575.04 184.689L1575.59 185.528ZM1548.31 187.016L1547.82 187.888L1547.83 187.893L1548.31 187.016ZM1540.25 179.328L1541.1 178.804L1539.25 175.795V179.328H1540.25ZM1540.25 222.232V223.232H1541.25V222.232H1540.25ZM1515.94 222.232H1514.94V223.232H1515.94V222.232ZM1515.94 119.436V118.436H1514.94V119.436H1515.94ZM1540.25 119.436H1541.25V118.436H1540.25V119.436ZM1561.82 143.616L1561.09 144.299L1561.11 144.311L1561.12 144.323L1561.82 143.616ZM1543.84 143.616L1543.13 142.921L1543.12 142.927L1543.11 142.933L1543.84 143.616ZM1543.84 164.82L1543.11 165.503L1543.12 165.509L1543.13 165.515L1543.84 164.82ZM1561.82 164.82L1561.09 164.136L1561.09 164.137L1561.82 164.82ZM1541.11 129.616C1542.91 126.556 1545.46 124.117 1548.79 122.297L1547.83 120.543C1544.21 122.526 1541.38 125.212 1539.39 128.6L1541.11 129.616ZM1548.79 122.297C1552.09 120.49 1556.01 119.568 1560.58 119.568V117.568C1555.74 117.568 1551.47 118.547 1547.83 120.543L1548.79 122.297ZM1560.58 119.568C1565.94 119.568 1570.75 120.963 1575.04 123.747L1576.13 122.069C1571.5 119.066 1566.31 117.568 1560.58 117.568V119.568ZM1575.05 123.752C1579.42 126.534 1582.86 130.516 1585.35 135.738L1587.15 134.878C1584.52 129.353 1580.85 125.069 1576.12 122.064L1575.05 123.752ZM1585.35 135.75C1587.92 140.961 1589.22 147.087 1589.22 154.156H1591.22C1591.22 146.841 1589.87 140.402 1587.15 134.866L1585.35 135.75ZM1589.22 154.156C1589.22 161.225 1587.92 167.395 1585.35 172.692L1587.15 173.564C1589.87 167.949 1591.22 161.471 1591.22 154.156H1589.22ZM1585.35 172.698C1582.86 177.92 1579.42 181.902 1575.05 184.684L1576.12 186.372C1580.85 183.367 1584.52 179.083 1587.15 173.558L1585.35 172.698ZM1575.04 184.689C1570.75 187.473 1565.94 188.868 1560.58 188.868V190.868C1566.31 190.868 1571.5 189.37 1576.13 186.367L1575.04 184.689ZM1560.58 188.868C1556.01 188.868 1552.09 187.946 1548.79 186.139L1547.83 187.893C1551.47 189.889 1555.74 190.868 1560.58 190.868V188.868ZM1548.8 186.144C1545.55 184.323 1542.99 181.879 1541.1 178.804L1539.4 179.852C1541.47 183.225 1544.29 185.906 1547.82 187.888L1548.8 186.144ZM1539.25 179.328V222.232H1541.25V179.328H1539.25ZM1540.25 221.232H1515.94V223.232H1540.25V221.232ZM1516.94 222.232V119.436H1514.94V222.232H1516.94ZM1515.94 120.436H1540.25V118.436H1515.94V120.436ZM1539.25 119.436V129.108H1541.25V119.436H1539.25ZM1566.54 154.156C1566.54 149.426 1565.25 145.627 1562.53 142.909L1561.12 144.323C1563.36 146.565 1564.54 149.793 1564.54 154.156H1566.54ZM1562.55 142.933C1559.97 140.165 1556.72 138.772 1552.9 138.772V140.772C1556.18 140.772 1558.89 141.942 1561.09 144.299L1562.55 142.933ZM1552.9 138.772C1549.07 138.772 1545.79 140.164 1543.13 142.921L1544.56 144.311C1546.85 141.943 1549.61 140.772 1552.9 140.772V138.772ZM1543.11 142.933C1540.5 145.727 1539.25 149.51 1539.25 154.156H1541.25C1541.25 149.874 1542.39 146.63 1544.57 144.299L1543.11 142.933ZM1539.25 154.156C1539.25 158.879 1540.5 162.705 1543.11 165.503L1544.57 164.137C1542.4 161.809 1541.25 158.526 1541.25 154.156H1539.25ZM1543.13 165.515C1545.79 168.272 1549.07 169.664 1552.9 169.664V167.664C1549.61 167.664 1546.85 166.493 1544.56 164.125L1543.13 165.515ZM1552.9 169.664C1556.72 169.664 1559.97 168.271 1562.55 165.503L1561.09 164.137C1558.89 166.494 1556.18 167.664 1552.9 167.664V169.664ZM1562.55 165.504C1565.25 162.633 1566.54 158.812 1566.54 154.156H1564.54C1564.54 158.428 1563.36 161.717 1561.09 164.136L1562.55 165.504ZM1624.53 131.712H1623.53V134.932L1625.35 132.279L1624.53 131.712ZM1646.97 118.816H1647.97V117.816H1646.97V118.816ZM1646.97 144.732V145.732H1647.97V144.732H1646.97ZM1628.37 147.832L1629 148.61L1628.37 147.832ZM1624.53 189V190H1625.53V189H1624.53ZM1600.23 189H1599.23V190H1600.23V189ZM1600.23 119.436V118.436H1599.23V119.436H1600.23ZM1624.53 119.436H1625.53V118.436H1624.53V119.436ZM1625.35 132.279C1628 128.422 1631.21 125.383 1634.96 123.147L1633.94 121.429C1629.92 123.822 1626.51 127.066 1623.71 131.145L1625.35 132.279ZM1634.96 123.147C1638.69 120.923 1642.69 119.816 1646.97 119.816V117.816C1642.33 117.816 1637.98 119.023 1633.94 121.429L1634.96 123.147ZM1645.97 118.816V144.732H1647.97V118.816H1645.97ZM1646.97 143.732H1640.15V145.732H1646.97V143.732ZM1640.15 143.732C1634.76 143.732 1630.57 144.779 1627.75 147.054L1629 148.61C1631.31 146.751 1634.96 145.732 1640.15 145.732V143.732ZM1627.75 147.054C1624.84 149.396 1623.53 153.362 1623.53 158.62H1625.53C1625.53 153.627 1626.78 150.402 1629 148.61L1627.75 147.054ZM1623.53 158.62V189H1625.53V158.62H1623.53ZM1624.53 188H1600.23V190H1624.53V188ZM1601.23 189V119.436H1599.23V189H1601.23ZM1600.23 120.436H1624.53V118.436H1600.23V120.436ZM1623.53 119.436V131.712H1625.53V119.436H1623.53ZM1669.33 185.528L1668.86 186.411L1668.86 186.414L1669.33 185.528ZM1656.43 173.128L1657.29 172.623L1656.43 173.128ZM1656.43 135.308L1655.57 134.793L1655.57 134.803L1656.43 135.308ZM1669.45 122.908L1668.99 122.022L1668.98 122.025L1669.45 122.908ZM1706.77 122.908L1706.31 123.791L1706.31 123.794L1706.77 122.908ZM1719.79 135.308L1718.93 135.813L1718.94 135.822L1719.79 135.308ZM1719.79 173.128L1718.93 172.619L1718.93 172.623L1719.79 173.128ZM1706.77 185.528L1706.31 184.642L1706.77 185.528ZM1696.48 165.068L1695.74 164.398L1695.74 164.399L1696.48 165.068ZM1696.48 143.368L1695.74 144.037L1695.74 144.044L1695.75 144.05L1696.48 143.368ZM1679.74 165.068L1678.99 165.723L1679.74 165.068ZM1688.05 188.868C1681.25 188.868 1675.17 187.452 1669.79 184.642L1668.86 186.414C1674.56 189.39 1680.96 190.868 1688.05 190.868V188.868ZM1669.79 184.645C1664.5 181.839 1660.34 177.837 1657.29 172.623L1655.57 173.633C1658.8 179.165 1663.24 183.43 1668.86 186.411L1669.79 184.645ZM1657.29 172.623C1654.26 167.427 1652.72 161.284 1652.72 154.156H1650.72C1650.72 161.578 1652.32 168.082 1655.57 173.633L1657.29 172.623ZM1652.72 154.156C1652.72 147.113 1654.25 141.01 1657.29 135.813L1655.57 134.803C1652.32 140.352 1650.72 146.815 1650.72 154.156H1652.72ZM1657.29 135.822C1660.42 130.603 1664.63 126.598 1669.92 123.791L1668.98 122.025C1663.36 125.004 1658.89 129.266 1655.57 134.794L1657.29 135.822ZM1669.91 123.794C1675.29 120.984 1681.37 119.568 1688.17 119.568V117.568C1681.09 117.568 1674.68 119.046 1668.99 122.022L1669.91 123.794ZM1688.17 119.568C1694.98 119.568 1701.01 120.984 1706.31 123.791L1707.24 122.025C1701.63 119.046 1695.26 117.568 1688.17 117.568V119.568ZM1706.31 123.794C1711.68 126.601 1715.88 130.602 1718.93 135.813L1720.66 134.803C1717.42 129.267 1712.94 125.002 1707.24 122.022L1706.31 123.794ZM1718.94 135.822C1722.05 141.019 1723.63 147.118 1723.63 154.156H1725.63C1725.63 146.81 1723.98 140.344 1720.65 134.794L1718.94 135.822ZM1723.63 154.156C1723.63 161.194 1722.05 167.337 1718.93 172.619L1720.66 173.637C1723.98 168.007 1725.63 161.502 1725.63 154.156H1723.63ZM1718.93 172.623C1715.88 177.834 1711.68 181.835 1706.31 184.642L1707.24 186.414C1712.94 183.434 1717.42 179.169 1720.66 173.633L1718.93 172.623ZM1706.31 184.642C1700.93 187.452 1694.85 188.868 1688.05 188.868V190.868C1695.14 190.868 1701.54 189.39 1707.24 186.414L1706.31 184.642ZM1688.05 169.788C1691.72 169.788 1694.8 168.431 1697.23 165.737L1695.74 164.399C1693.7 166.665 1691.16 167.788 1688.05 167.788V169.788ZM1697.22 165.738C1699.76 162.934 1700.95 159.025 1700.95 154.156H1698.95C1698.95 158.711 1697.84 162.077 1695.74 164.398L1697.22 165.738ZM1700.95 154.156C1700.95 149.29 1699.76 145.412 1697.21 142.686L1695.75 144.05C1697.84 146.283 1698.95 149.598 1698.95 154.156H1700.95ZM1697.23 142.699C1694.81 140.01 1691.77 138.648 1688.17 138.648V140.648C1691.19 140.648 1693.69 141.766 1695.74 144.037L1697.23 142.699ZM1688.17 138.648C1684.58 138.648 1681.54 140.01 1679.12 142.699L1680.61 144.037C1682.65 141.766 1685.15 140.648 1688.17 140.648V138.648ZM1679.12 142.699C1676.67 145.426 1675.52 149.298 1675.52 154.156H1677.52C1677.52 149.59 1678.6 146.27 1680.61 144.037L1679.12 142.699ZM1675.52 154.156C1675.52 159.083 1676.62 162.993 1678.99 165.723L1680.5 164.413C1678.57 162.183 1677.52 158.819 1677.52 154.156H1675.52ZM1678.99 165.723C1681.33 168.43 1684.38 169.788 1688.05 169.788V167.788C1684.94 167.788 1682.45 166.666 1680.5 164.413L1678.99 165.723Z" fill="#6B6868" fill-opacity="0.3" mask="url(#path-3-outside-2_301_5)"/>
</svg>
